
<svg width="156" height="29" viewBox="0 0 156 29" fill="none" xmlns="http://www.w3.org/2000/svg">
<path d="M0.0859375 2H6.34375L12.9531 18.125H13.2344L19.8437 2H26.1016V26H21.1797V10.3789H20.9805L14.7695 25.8828H11.418L5.20703 10.3203H5.00781V26H0.0859375V2ZM32.6813 26.3398C31.5329 26.3398 30.5094 26.1406 29.611 25.7422C28.7125 25.3359 28.0016 24.7383 27.4782 23.9492C26.9625 23.1523 26.7047 22.1602 26.7047 20.9727C26.7047 19.9727 26.8883 19.1328 27.2555 18.4531C27.6227 17.7734 28.1227 17.2266 28.7555 16.8125C29.3883 16.3984 30.1071 16.0859 30.9118 15.875C31.7243 15.6641 32.5758 15.5156 33.4664 15.4297C34.5133 15.3203 35.3571 15.2187 35.9977 15.125C36.6383 15.0234 37.1032 14.875 37.3922 14.6797C37.6813 14.4844 37.8258 14.1953 37.8258 13.8125V13.7422C37.8258 13 37.5914 12.4258 37.1227 12.0195C36.6618 11.6133 36.0055 11.4102 35.1539 11.4102C34.2555 11.4102 33.5407 11.6094 33.0094 12.0078C32.4782 12.3984 32.1266 12.8906 31.9547 13.4844L27.3375 13.1094C27.5719 12.0156 28.0329 11.0703 28.7204 10.2734C29.4079 9.46875 30.2946 8.85156 31.3805 8.42187C32.4743 7.98437 33.7399 7.76563 35.1774 7.76563C36.1774 7.76563 37.1344 7.88281 38.0485 8.11719C38.9704 8.35156 39.7868 8.71484 40.4977 9.20703C41.2164 9.69922 41.7829 10.332 42.1969 11.1055C42.611 11.8711 42.818 12.7891 42.818 13.8594V26H38.0836V23.5039H37.943C37.6539 24.0664 37.2672 24.5625 36.7829 24.9922C36.2985 25.4141 35.7164 25.7461 35.0368 25.9883C34.3571 26.2227 33.5719 26.3398 32.6813 26.3398ZM34.111 22.8945C34.8454 22.8945 35.4938 22.75 36.0563 22.4609C36.6188 22.1641 37.0602 21.7656 37.3805 21.2656C37.7008 20.7656 37.861 20.1992 37.861 19.5664V17.6563C37.7047 17.7578 37.4899 17.8516 37.2164 17.9375C36.9508 18.0156 36.65 18.0898 36.3141 18.1602C35.9782 18.2227 35.6422 18.2812 35.3063 18.3359C34.9704 18.3828 34.6657 18.4258 34.3922 18.4648C33.8063 18.5508 33.2946 18.6875 32.8571 18.875C32.4196 19.0625 32.0797 19.3164 31.8375 19.6367C31.5954 19.9492 31.4743 20.3398 31.4743 20.8086C31.4743 21.4883 31.7204 22.0078 32.2125 22.3672C32.7125 22.7187 33.3454 22.8945 34.111 22.8945ZM53.7307 8V11.75H42.6214V8H53.7307ZM45.1643 26V6.69922C45.1643 5.39453 45.4182 4.3125 45.9261 3.45312C46.4417 2.59375 47.1448 1.94922 48.0354 1.51953C48.9261 1.08984 49.9378 0.874998 51.0706 0.874998C51.8362 0.874998 52.5354 0.933593 53.1682 1.05078C53.8089 1.16797 54.2854 1.27344 54.5979 1.36719L53.7073 5.11719C53.512 5.05469 53.2698 4.99609 52.9807 4.9414C52.6995 4.88672 52.4104 4.85938 52.1136 4.85938C51.3792 4.85938 50.8675 5.03125 50.5784 5.375C50.2893 5.71094 50.1448 6.18359 50.1448 6.79297V26H45.1643ZM57.6913 26L52.7929 8H57.8437L60.6327 20.0937H60.7968L63.703 8H68.6601L71.6132 20.0234H71.7655L74.5077 8H79.5468L74.6601 26H69.3749L66.2812 14.6797H66.0585L62.9648 26H57.6913ZM79.6636 26V2H84.6558V11.0234H84.8082C85.0269 10.5391 85.3433 10.0469 85.7574 9.54687C86.1793 9.03906 86.7261 8.61719 87.398 8.28125C88.0777 7.9375 88.9214 7.76563 89.9293 7.76563C91.2418 7.76563 92.4527 8.10938 93.5621 8.79688C94.6714 9.47656 95.5582 10.5039 96.2222 11.8789C96.8863 13.2461 97.2183 14.9609 97.2183 17.0234C97.2183 19.0312 96.8941 20.7266 96.2457 22.1094C95.605 23.4844 94.73 24.5273 93.6207 25.2383C92.5191 25.9414 91.2847 26.293 89.9175 26.293C88.9488 26.293 88.1246 26.1328 87.4449 25.8125C86.773 25.4922 86.2222 25.0898 85.7925 24.6055C85.3629 24.1133 85.0347 23.6172 84.8082 23.1172H84.5855V26H79.6636ZM84.5504 17C84.5504 18.0703 84.6988 19.0039 84.9957 19.8008C85.2925 20.5977 85.7222 21.2187 86.2847 21.6641C86.8472 22.1016 87.5308 22.3203 88.3355 22.3203C89.148 22.3203 89.8355 22.0977 90.398 21.6523C90.9605 21.1992 91.3863 20.5742 91.6754 19.7773C91.9722 18.9727 92.1207 18.0469 92.1207 17C92.1207 15.9609 91.9761 15.0469 91.6871 14.2578C91.398 13.4687 90.9722 12.8516 90.4097 12.4062C89.8472 11.9609 89.1558 11.7383 88.3355 11.7383C87.523 11.7383 86.8355 11.9531 86.273 12.3828C85.7183 12.8125 85.2925 13.4219 84.9957 14.2109C84.6988 15 84.5504 15.9297 84.5504 17ZM102.902 15.5938V26H97.9094V2H102.761V11.1758H102.972C103.378 10.1133 104.034 9.28125 104.941 8.67969C105.847 8.07031 106.984 7.76563 108.351 7.76563C109.601 7.76563 110.691 8.03906 111.62 8.58594C112.558 9.125 113.284 9.90234 113.8 10.918C114.323 11.9258 114.581 13.1328 114.573 14.5391V26H109.581V15.4297C109.589 14.3203 109.308 13.457 108.738 12.8398C108.175 12.2227 107.386 11.9141 106.37 11.9141C105.691 11.9141 105.089 12.0586 104.566 12.3477C104.05 12.6367 103.644 13.0586 103.347 13.6133C103.058 14.1602 102.909 14.8203 102.902 15.5938ZM121.488 15.8182V16.892C121.488 17.197 121.428 17.5085 121.309 17.8267C121.193 18.1416 121.037 18.4399 120.841 18.7216C120.646 19 120.432 19.237 120.2 19.4325L119.265 18.8807C119.431 18.6188 119.577 18.3288 119.703 18.0107C119.832 17.6925 119.897 17.3229 119.897 16.902V15.8182H121.488ZM123.988 15.8182V16.892C123.988 17.197 123.929 17.5085 123.809 17.8267C123.693 18.1416 123.538 18.4399 123.342 18.7216C123.147 19 122.931 19.237 122.696 19.4325L121.761 18.8807C121.93 18.6188 122.078 18.3288 122.204 18.0107C122.333 17.6925 122.397 17.3229 122.397 16.902V15.8182H123.988ZM124.185 26V18.3636H126.238V19.696H126.317C126.457 19.2221 126.69 18.8641 127.018 18.6222C127.347 18.3769 127.724 18.2543 128.152 18.2543C128.258 18.2543 128.372 18.2609 128.495 18.2741C128.618 18.2874 128.725 18.3056 128.818 18.3288V20.2081C128.719 20.1783 128.581 20.1518 128.406 20.1286C128.23 20.1054 128.069 20.0938 127.923 20.0938C127.612 20.0938 127.333 20.1617 127.088 20.2976C126.846 20.4302 126.654 20.6158 126.511 20.8544C126.372 21.093 126.303 21.3681 126.303 21.6797V26H124.185ZM130.752 26.1442C130.265 26.1442 129.831 26.0597 129.449 25.8906C129.068 25.7183 128.767 25.4647 128.545 25.13C128.326 24.7919 128.216 24.371 128.216 23.8672C128.216 23.4429 128.294 23.0866 128.45 22.7983C128.606 22.5099 128.818 22.2779 129.086 22.1023C129.355 21.9266 129.66 21.794 130.001 21.7045C130.346 21.6151 130.707 21.5521 131.085 21.5156C131.529 21.4692 131.887 21.4261 132.159 21.3864C132.431 21.3433 132.628 21.2803 132.751 21.1974C132.873 21.1146 132.934 20.992 132.934 20.8295V20.7997C132.934 20.4848 132.835 20.2412 132.636 20.0689C132.441 19.8965 132.162 19.8104 131.801 19.8104C131.42 19.8104 131.117 19.8949 130.891 20.0639C130.666 20.2296 130.517 20.4384 130.444 20.6903L128.485 20.5312C128.584 20.0672 128.78 19.6662 129.072 19.3281C129.363 18.9867 129.739 18.7249 130.2 18.5426C130.664 18.357 131.201 18.2642 131.811 18.2642C132.235 18.2642 132.641 18.3139 133.029 18.4134C133.42 18.5128 133.766 18.6669 134.068 18.8757C134.373 19.0845 134.613 19.353 134.789 19.6811C134.965 20.0059 135.052 20.3954 135.052 20.8494V26H133.044V24.9411H132.984C132.862 25.1797 132.697 25.3902 132.492 25.5724C132.287 25.7514 132.04 25.8923 131.751 25.995C131.463 26.0945 131.13 26.1442 130.752 26.1442ZM131.358 24.6825C131.67 24.6825 131.945 24.6212 132.184 24.4986C132.422 24.3726 132.61 24.2036 132.746 23.9915C132.881 23.7794 132.949 23.5391 132.949 23.2706V22.4602C132.883 22.5033 132.792 22.5431 132.676 22.5795C132.563 22.6127 132.436 22.6442 132.293 22.674C132.151 22.7005 132.008 22.7254 131.866 22.7486C131.723 22.7685 131.594 22.7867 131.478 22.8033C131.229 22.8397 131.012 22.8977 130.827 22.9773C130.641 23.0568 130.497 23.1645 130.394 23.3004C130.291 23.433 130.24 23.5987 130.24 23.7976C130.24 24.0859 130.344 24.3063 130.553 24.4588C130.765 24.608 131.034 24.6825 131.358 24.6825ZM137.693 21.5852V26H135.575V15.8182H137.634V19.7109H137.723C137.896 19.2602 138.174 18.9072 138.558 18.652C138.943 18.3935 139.425 18.2642 140.005 18.2642C140.535 18.2642 140.998 18.3802 141.392 18.6122C141.79 18.8409 142.098 19.1707 142.317 19.6016C142.539 20.0291 142.648 20.5412 142.645 21.1378V26H140.527V21.5156C140.531 21.045 140.411 20.6787 140.169 20.4169C139.931 20.1551 139.596 20.0241 139.165 20.0241C138.877 20.0241 138.621 20.0855 138.399 20.2081C138.181 20.3307 138.008 20.5097 137.882 20.745C137.76 20.977 137.697 21.2571 137.693 21.5852ZM145.31 21.5852V26H143.192V15.8182H145.25V19.7109H145.34C145.512 19.2602 145.79 18.9072 146.175 18.652C146.559 18.3935 147.041 18.2642 147.621 18.2642C148.152 18.2642 148.614 18.3802 149.009 18.6122C149.406 18.8409 149.715 19.1707 149.933 19.6016C150.155 20.0291 150.265 20.5412 150.261 21.1378V26H148.144V21.5156C148.147 21.045 148.028 20.6787 147.786 20.4169C147.547 20.1551 147.212 20.0241 146.781 20.0241C146.493 20.0241 146.238 20.0855 146.016 20.2081C145.797 20.3307 145.625 20.5097 145.499 20.745C145.376 20.977 145.313 21.2571 145.31 21.5852ZM152.583 15.8182V16.892C152.583 17.197 152.523 17.5085 152.404 17.8267C152.288 18.1416 152.132 18.4399 151.937 18.7216C151.741 19 151.527 19.237 151.295 19.4325L150.361 18.8807C150.526 18.6188 150.672 18.3288 150.798 18.0107C150.927 17.6925 150.992 17.3229 150.992 16.902V15.8182H152.583ZM155.084 15.8182V16.892C155.084 17.197 155.024 17.5085 154.905 17.8267C154.789 18.1416 154.633 18.4399 154.437 18.7216C154.242 19 154.026 19.237 153.791 19.4325L152.856 18.8807C153.025 18.6188 153.173 18.3288 153.299 18.0107C153.428 17.6925 153.493 17.3229 153.493 16.902V15.8182H155.084Z" fill="white"/>
</svg>
